<?xml version="1.0" encoding="UTF-8"?>
<svg enable-background="new 0 0 792 612" version="1.1" viewBox="0 0 792 612" xml:space="preserve" xmlns="http://www.w3.org/2000/svg" xmlns:xlink="http://www.w3.org/1999/xlink">
<style type="text/css">
	.st0{clip-path:url(#b);fill:url(#a);}
	.st1{clip-path:url(#b);}
	.st2{fill:url(#y);}
	.st3{fill:#FFFFFF;}
	.st4{fill:#D1D3D4;}
	.st5{fill:#E6E7E8;}
	.st6{opacity:0.76;clip-path:url(#b);}
	.st7{opacity:0.25;fill:url(#z);}
	.st8{fill:url(#aa);}
	.st9{fill:url(#aj);}
	.st10{opacity:0.2;fill:url(#ab);}
	.st11{fill:none;}
	.st12{opacity:0.15;fill:url(#ac);}
	.st13{opacity:0.5;fill:url(#t);}
	.st14{fill:url(#u);}
	.st15{opacity:3.000000e-02;fill:none;stroke:#FFFFFF;stroke-width:2;stroke-miterlimit:10;}
	.st16{opacity:0.5;fill:url(#v);}
	.st17{fill:url(#w);}
	.st18{fill:url(#ad);}
	.st19{fill:url(#ae);}
	.st20{fill:url(#af);}
	.st21{fill:url(#ag);}
	.st22{clip-path:url(#x);}
	.st23{clip-path:url(#SVGID_21_);fill:url(#SVGID_22_);}
	.st24{opacity:0.71;clip-path:url(#SVGID_21_);}
	.st25{clip-path:url(#SVGID_21_);}
	.st26{fill:url(#SVGID_23_);}
	.st27{fill:#262262;}
	.st28{fill:#2B3990;}
	.st29{opacity:0.26;clip-path:url(#SVGID_21_);}
	.st30{opacity:0.25;fill:url(#SVGID_24_);}
	.st31{fill:url(#SVGID_25_);}
	.st32{fill:url(#SVGID_26_);}
	.st33{opacity:0.2;fill:url(#SVGID_27_);}
	.st34{opacity:0.15;fill:url(#SVGID_28_);}
	.st35{opacity:0.5;fill:url(#SVGID_29_);}
	.st36{fill:url(#SVGID_30_);}
	.st37{opacity:0.5;fill:url(#SVGID_31_);}
	.st38{fill:url(#SVGID_32_);}
	.st39{fill:url(#SVGID_33_);}
	.st40{fill:url(#SVGID_34_);}
	.st41{fill:url(#SVGID_35_);}
	.st42{fill:url(#SVGID_36_);}
</style>
		<defs>
			<rect id="ah" width="792" height="612"/>
		</defs>
		<clipPath id="b">
			<use xlink:href="#ah"/>
		</clipPath>
		<g class="st1">
			<defs>
				<rect id="ai" width="792" height="612"/>
			</defs>
			<clipPath id="a">
				<use xlink:href="#ai"/>
			</clipPath>
			<linearGradient id="y" x1="396" x2="396" y1="614.71" y2="5.6161" gradientUnits="userSpaceOnUse">
				<stop stop-color="#64499D" offset="0"/>
				<stop stop-color="#2B3990" offset=".6821"/>
				<stop stop-color="#050145" offset=".9821"/>
			</linearGradient>
			<rect width="792" height="612" clip-path="url(#a)" fill="url(#y)"/>
			<g clip-path="url(#a)" opacity=".71">
						<path class="st3" d="m78.4 280.6h1.1c1.8 0 3.6-1.6 3.5-3.5s-1.5-3.5-3.5-3.5h-1.1c-1.8 0-3.6 1.6-3.5 3.5s1.5 3.6 3.5 3.5z"/>
						<path class="st3" d="m24.2 330.3v-1.1c0-1.6-1.3-3-3-3-1.6 0.1-3 1.3-3 3v1.1c0 1.6 1.3 3 3 3 1.6-0.1 3-1.3 3-3z"/>
						<path class="st3" d="m84.5 384.6h1.1c1.5 0 1.5-2.3 0-2.3h-1.1c-1.4 0.1-1.4 2.4 0 2.3z"/>
						<path class="st3" d="m97.8 462.8h-1.1c-1.7 0-3.4 1.5-3.3 3.3s1.5 3.4 3.3 3.3h1.1c1.7 0 3.4-1.5 3.3-3.3s-1.5-3.4-3.3-3.3z"/>
						<path class="st3" d="m34.5 476.2c1.9 0 1.9-3 0-3s-1.9 3 0 3z"/>
						<path class="st3" d="m15.2 422.5c4.4 0 4.4-6.8 0-6.8-4.3 0-4.4 6.8 0 6.8z"/>
						<path class="st3" d="m85.6 510c2.2 0 2.2-3.5 0-3.5s-2.2 3.5 0 3.5z"/>
						<path class="st3" d="m203.4 537.9h-1.1c-0.9 0-1.7 0.7-1.6 1.6 0 0.9 0.7 1.7 1.6 1.6h1.1c0.9 0 1.7-0.7 1.6-1.6 0-0.8-0.7-1.6-1.6-1.6z"/>
						<path class="st3" d="m134.1 550.5c-0.7 0.4-1.4 0.8-2.1 1.1-1.6 0.8-2.2 3.2-1.2 4.7 1 1.6 3 2.1 4.7 1.2 0.7-0.4 1.4-0.8 2.1-1.1 1.6-0.8 2.2-3.2 1.2-4.7-1.1-1.5-3-2.1-4.7-1.2z"/>
						<path class="st3" d="m37.6 532.3c3.6 0 3.6-5.6 0-5.6s-3.6 5.6 0 5.6z"/>
						<path class="st3" d="m187.8 377.5v-1.1c0-1.5-2.4-1.5-2.4 0v1.1c0 1.5 2.4 1.5 2.4 0z"/>
						<path class="st3" d="m254.1 419.3v1.1c0 1.2 1.9 1.2 1.9 0v-1.1c0-1.2-1.9-1.2-1.9 0z"/>
						<path class="st3" d="m275.1 342.7c-1.1-0.3-2.2-0.7-3.2-1-1.5-0.5-3.4 0.6-3.7 2.1-0.4 1.7 0.5 3.2 2.1 3.7 1.1 0.3 2.2 0.7 3.2 1 1.5 0.5 3.4-0.6 3.7-2.1 0.4-1.6-0.5-3.2-2.1-3.7z"/>
						<path class="st3" d="m203.1 336.3c1.4 0 1.4-2.2 0-2.2-1.4 0.1-1.4 2.2 0 2.2z"/>
						<path class="st3" d="m269.9 220.1v-1.1c0-1.1-1-2.2-2.2-2.2-1.2 0.1-2.2 1-2.2 2.2v1.1c0 1.1 1 2.2 2.2 2.2s2.2-0.9 2.2-2.2z"/>
						<path class="st3" d="m342 256.5v-2.2c0-0.8-0.7-1.6-1.6-1.6-0.8 0-1.6 0.7-1.6 1.6v2.2c0 0.8 0.7 1.6 1.6 1.6s1.6-0.7 1.6-1.6z"/>
						<path class="st3" d="m297.4 248.6l-1.1-1.1c-0.6-0.6-1.7-0.7-2.3 0-0.6 0.6-0.7 1.7 0 2.3l1.1 1.1c0.6 0.6 1.7 0.7 2.3 0 0.6-0.6 0.6-1.7 0-2.3z"/>
						<path class="st3" d="m330 204.9c-0.4-0.7-0.7-1.4-1.1-2.1-0.7-1.3-2.5-1.7-3.7-1-1.3 0.8-1.7 2.4-1 3.7 0.4 0.7 0.7 1.4 1.1 2.1 0.7 1.3 2.5 1.7 3.7 1 1.3-0.8 1.7-2.4 1-3.7z"/>
						<path class="st3" d="m289.5 88.2l1.1 1.1c0.9 0.9 2.4-0.5 1.4-1.4l-1.1-1.1c-0.9-1-2.4 0.5-1.4 1.4z"/>
						<path class="st3" d="m276.9 102.8v-1.1c0-1.3-1.2-2.6-2.6-2.6-1.4 0.1-2.6 1.1-2.6 2.6v1.1c0 1.3 1.2 2.6 2.6 2.6 1.4-0.1 2.6-1.2 2.6-2.6z"/>
						<path class="st3" d="m220.4 66.7l-1.1-1.1c-0.8-0.8-2.3-0.9-3.1 0s-0.9 2.3 0 3.1l1.1 1.1c0.8 0.8 2.3 0.9 3.1 0 0.8-0.8 0.9-2.2 0-3.1z"/>
						<path class="st3" d="m163.1 58.5v1.1c0 1 1.6 1 1.6 0v-1.1c0-1.1-1.6-1.1-1.6 0z"/>
						<path class="st3" d="m143.5 0.5c3.9 0 3.9-6 0-6s-3.9 6 0 6z"/>
						<path class="st3" d="m94 42.4v1.1c0 1.5 1.3 3 2.9 2.9s2.9-1.3 2.9-2.9v-1.1c0-1.5-1.3-3-2.9-2.9-1.5 0.1-2.9 1.3-2.9 2.9z"/>
						<path class="st3" d="m72.9 21c2.4 0 2.4-3.7 0-3.7s-2.4 3.7 0 3.7z"/>
						<path class="st3" d="m108.6 96.6c2.2 0 2.2-3.4 0-3.4s-2.2 3.4 0 3.4z"/>
						<path class="st3" d="m120.8 302.6h-1.1c-1 0-1.9 0.8-1.8 1.8 0 1 0.8 1.8 1.8 1.8h1.1c1 0 1.9-0.8 1.8-1.8 0-1-0.8-1.8-1.8-1.8z"/>
						<path class="st3" d="m146 349.9l-1.1 1.1c-0.4 0.4 0.2 1 0.6 0.6l1.1-1.1c0.4-0.4-0.2-1-0.6-0.6z"/>
						<path class="st3" d="m109.2 336.2l-1.1-1.1c-0.9-0.9-2.3 0.5-1.4 1.4l1.1 1.1c0.9 0.9 2.3-0.5 1.4-1.4z"/>
						<path class="st3" d="m167.6 295.3l-1.1-1.1c-1-0.9-2.5 0.5-1.5 1.5l1.1 1.1c1 1 2.5-0.5 1.5-1.5z"/>
						<path class="st3" d="m129.9 244.5l1.1-1.1c0.6-0.6-0.3-1.4-0.9-0.9l-1.1 1.1c-0.5 0.6 0.3 1.4 0.9 0.9z"/>
						<path class="st3" d="m23.7 226.1c0.9 0 0.9-1.4 0-1.4s-0.9 1.4 0 1.4z"/>
						<path class="st3" d="m9.9 172h1.1c1.6 0 1.6-2.5 0-2.4h-1.1c-1.6 0-1.6 2.5 0 2.4z"/>
						<path class="st3" d="m262.3 130.4l1.1-1.1c0.6-0.6-0.3-1.5-0.9-0.9l-1.1 1.1c-0.5 0.5 0.4 1.5 0.9 0.9z"/>
						<path class="st3" d="m129.8 516.2c1.5 0 1.5-2.4 0-2.4s-1.5 2.4 0 2.4z"/>
						<path class="st3" d="m96.9 540.4c1.4 0 1.5-2.3 0-2.3s-1.5 2.3 0 2.3z"/>
						<path class="st3" d="m121.9 491c0.7 0 0.7-1.1 0-1.1-0.8-0.1-0.8 1.1 0 1.1z"/>
						<path class="st3" d="m34.9 498.6c1.7 0 1.7-2.7 0-2.7-1.7 0.1-1.7 2.7 0 2.7z"/>
						<path class="st3" d="m12.4 507c0.9 0 0.9-1.5 0-1.5s-0.9 1.5 0 1.5z"/>
						<path class="st3" d="m15.8 14.1c0.5 0 0.5-0.8 0-0.8-0.6 0-0.6 0.8 0 0.8z"/>
						<path class="st3" d="m30.7 4.6c1.1 0 1.1-1.6 0-1.6-1.1-0.1-1.1 1.6 0 1.6z"/>
						<path class="st3" d="m9.6 29c1.6 0 1.6-2.4 0-2.4s-1.6 2.4 0 2.4z"/>
						<path class="st3" d="m75.6 116.8c1.1 0 1.1-1.7 0-1.7-1.1-0.1-1.1 1.7 0 1.7z"/>
						<path class="st3" d="m149.4 29c0.5 0 0.5-0.8 0-0.8s-0.5 0.8 0 0.8z"/>
						<path class="st3" d="m212.3 120.3c0.4 0 0.4-0.6 0-0.6s-0.4 0.6 0 0.6z"/>
						<path class="st3" d="m205 135c1.2 0 1.2-1.8 0-1.8s-1.2 1.8 0 1.8z"/>
						<path class="st3" d="m207.9 427.9c1.7 0 1.7-2.7 0-2.7-1.8 0-1.8 2.7 0 2.7z"/>
						<path class="st3" d="m198.5 197.5c2.6 0 2.6-4 0-4s-2.6 4 0 4z"/>
						<path class="st3" d="m161.1 272.3c1.1 0 1.1-1.7 0-1.7s-1.1 1.7 0 1.7z"/>
						<path class="st3" d="m89.3 183.8l-1.1-1.1c-0.9-0.9-2.3 0.5-1.4 1.4l1.1 1.1c0.9 0.9 2.3-0.5 1.4-1.4z"/>
						<path class="st3" d="m162.5 126.3v-1.1c0-0.9-0.8-1.8-1.7-1.7-0.9 0-1.7 0.8-1.7 1.7v1.1c0 0.9 0.8 1.8 1.7 1.7s1.7-0.8 1.7-1.7z"/>
						<path class="st3" d="m32.9 74.8v-1.1c0-1.6-1.4-3.2-3.1-3.1s-3.2 1.4-3.1 3.1v1.1c0 1.6 1.4 3.2 3.1 3.1 1.6-0.1 3.1-1.4 3.1-3.1z"/>
						<path class="st3" d="m11 146.1v-1.1c0-0.8-0.7-1.6-1.5-1.5-0.8 0-1.6 0.7-1.5 1.5v1.1c0 0.8 0.7 1.6 1.5 1.5 0.8 0 1.5-0.6 1.5-1.5z"/>
			</g>
			<g clip-path="url(#a)" opacity=".71">
						<path class="st3" d="m395.5 288h1.1c1.8 0 3.6-1.6 3.5-3.5s-1.5-3.5-3.5-3.5h-1.1c-1.8 0-3.6 1.6-3.5 3.5s1.5 3.5 3.5 3.5z"/>
						<path class="st3" d="m341.3 337.6v-1.1c0-1.6-1.3-3-3-3-1.6 0.1-3 1.3-3 3v1.1c0 1.6 1.3 3 3 3 1.6-0.1 3-1.3 3-3z"/>
						<path class="st3" d="m401.6 392h1.1c1.5 0 1.5-2.3 0-2.3h-1.1c-1.5 0-1.5 2.3 0 2.3z"/>
						<path class="st3" d="m414.8 470.1h-1.1c-1.7 0-3.4 1.5-3.3 3.3s1.5 3.4 3.3 3.3h1.1c1.7 0 3.4-1.5 3.3-3.3 0-1.8-1.4-3.3-3.3-3.3z"/>
						<path class="st3" d="m351.5 483.5c1.9 0 1.9-3 0-3s-1.9 3 0 3z"/>
						<path class="st3" d="m332.3 429.9c4.4 0 4.4-6.8 0-6.8-4.4-0.1-4.4 6.8 0 6.8z"/>
						<path class="st3" d="m402.7 517.3c2.2 0 2.2-3.5 0-3.5-2.3 0-2.3 3.5 0 3.5z"/>
						<path class="st3" d="m520.4 545.2h-1.1c-0.9 0-1.7 0.7-1.6 1.6 0 0.9 0.7 1.7 1.6 1.6h1.1c0.9 0 1.7-0.7 1.6-1.6 0-0.8-0.7-1.6-1.6-1.6z"/>
						<path class="st3" d="m451.1 557.9c-0.7 0.4-1.4 0.8-2.1 1.1-1.6 0.8-2.2 3.2-1.2 4.7 1 1.6 3 2.1 4.7 1.2 0.7-0.4 1.4-0.8 2.1-1.1 1.6-0.8 2.2-3.2 1.2-4.7-1-1.6-3-2.1-4.7-1.2z"/>
						<path class="st3" d="m354.6 539.6c3.6 0 3.6-5.6 0-5.6-3.5 0.1-3.5 5.6 0 5.6z"/>
						<path class="st3" d="m504.8 384.8v-1.1c0-1.5-2.4-1.5-2.4 0v1.1c0.1 1.5 2.5 1.5 2.4 0z"/>
						<path class="st3" d="m571.2 426.6v1.1c0 1.2 1.9 1.2 1.9 0v-1.1c-0.1-1.2-1.9-1.2-1.9 0z"/>
						<path class="st3" d="m592.2 350c-1.1-0.3-2.2-0.7-3.2-1-1.5-0.5-3.4 0.6-3.7 2.1-0.4 1.7 0.5 3.2 2.1 3.7 1.1 0.3 2.2 0.7 3.2 1 1.5 0.5 3.4-0.6 3.7-2.1 0.4-1.6-0.5-3.2-2.1-3.7z"/>
						<path class="st3" d="m520.1 343.7c1.4 0 1.4-2.2 0-2.2s-1.4 2.2 0 2.2z"/>
						<path class="st3" d="m587 227.5v-1.1c0-1.1-1-2.2-2.2-2.2-1.2 0.1-2.2 1-2.2 2.2v1.1c0 1.1 1 2.2 2.2 2.2 1.2-0.1 2.2-1 2.2-2.2z"/>
						<path class="st3" d="m659.1 263.9v-2.2c0-0.8-0.7-1.6-1.6-1.6-0.8 0-1.6 0.7-1.6 1.6v2.2c0 0.8 0.7 1.6 1.6 1.6 0.8-0.1 1.6-0.8 1.6-1.6z"/>
						<path class="st3" d="m614.4 255.9l-1.1-1.1c-0.6-0.6-1.7-0.7-2.3 0-0.6 0.6-0.7 1.7 0 2.3l1.1 1.1c0.6 0.6 1.7 0.7 2.3 0 0.6-0.6 0.7-1.6 0-2.3z"/>
						<path class="st3" d="m647 212.2c-0.4-0.7-0.7-1.4-1.1-2.1-0.7-1.3-2.5-1.7-3.7-1-1.3 0.8-1.7 2.4-1 3.7 0.4 0.7 0.7 1.4 1.1 2.1 0.7 1.3 2.5 1.7 3.7 1 1.3-0.8 1.7-2.3 1-3.7z"/>
						<path class="st3" d="m606.5 95.5l1.1 1.1c0.9 0.9 2.4-0.5 1.4-1.4l-1.1-1.1c-0.9-0.9-2.3 0.5-1.4 1.4z"/>
						<path class="st3" d="m594 110.1v-1.1c0-1.3-1.2-2.6-2.6-2.6-1.4 0.1-2.6 1.1-2.6 2.6v1.1c0 1.3 1.2 2.6 2.6 2.6 1.4-0.1 2.6-1.1 2.6-2.6z"/>
						<path class="st3" d="m537.5 74.1l-1.1-1.1c-0.8-0.8-2.3-0.9-3.1 0s-0.9 2.3 0 3.1l1.1 1.1c0.8 0.8 2.3 0.9 3.1 0s0.9-2.3 0-3.1z"/>
						<path class="st3" d="m480.1 65.8v1.1c0 1 1.6 1 1.6 0v-1.1c0-1-1.6-1-1.6 0z"/>
						<path class="st3" d="m460.5 7.9c3.9 0 3.9-6 0-6-3.8-0.1-3.8 6 0 6z"/>
						<path class="st3" d="m411.1 49.8v1.1c0 1.5 1.3 3 2.9 2.9s2.9-1.3 2.9-2.9v-1.1c0-1.5-1.3-3-2.9-2.9-1.6 0-2.9 1.2-2.9 2.9z"/>
						<path class="st3" d="m389.9 28.4c2.4 0 2.4-3.7 0-3.7-2.3 0-2.3 3.7 0 3.7z"/>
						<path class="st3" d="m425.7 103.9c2.2 0 2.2-3.4 0-3.4s-2.2 3.4 0 3.4z"/>
						<path class="st3" d="m437.9 309.9h-1.1c-1 0-1.9 0.8-1.8 1.8 0 1 0.8 1.8 1.8 1.8h1.1c1 0 1.9-0.8 1.8-1.8-0.1-0.9-0.8-1.8-1.8-1.8z"/>
						<path class="st3" d="m463.1 357.2l-1.1 1.1c-0.4 0.4 0.2 1 0.6 0.6l1.1-1.1c0.4-0.4-0.2-1-0.6-0.6z"/>
						<path class="st3" d="m426.2 343.5l-1.1-1.1c-0.9-0.9-2.3 0.5-1.4 1.4l1.1 1.1c0.9 0.9 2.3-0.5 1.4-1.4z"/>
						<path class="st3" d="m484.7 302.7l-1.1-1.1c-1-0.9-2.5 0.5-1.5 1.5l1.1 1.1c1 0.9 2.5-0.6 1.5-1.5z"/>
						<path class="st3" d="m446.9 251.8l1.1-1.1c0.6-0.6-0.3-1.4-0.9-0.9l-1.1 1.1c-0.5 0.6 0.4 1.5 0.9 0.9z"/>
						<path class="st3" d="m340.8 233.5c0.9 0 0.9-1.4 0-1.4-0.9-0.1-0.9 1.4 0 1.4z"/>
						<path class="st3" d="m327 179.4h1.1c1.6 0 1.6-2.5 0-2.4h-1.1c-1.6-0.1-1.6 2.4 0 2.4z"/>
						<path class="st3" d="m579.4 137.7l1.1-1.1c0.6-0.6-0.3-1.5-0.9-0.9l-1.1 1.1c-0.6 0.6 0.3 1.5 0.9 0.9z"/>
						<path class="st3" d="m446.9 523.5c1.5 0 1.5-2.4 0-2.4-1.6 0-1.6 2.4 0 2.4z"/>
						<path class="st3" d="m414 547.7c1.4 0 1.5-2.3 0-2.3s-1.5 2.3 0 2.3z"/>
						<path class="st3" d="m438.9 498.3c0.7 0 0.7-1.1 0-1.1s-0.7 1.1 0 1.1z"/>
						<path class="st3" d="m351.9 505.9c1.7 0 1.7-2.7 0-2.7-1.7 0.1-1.7 2.7 0 2.7z"/>
						<path class="st3" d="m329.5 514.3c0.9 0 0.9-1.5 0-1.5-0.9 0.1-0.9 1.5 0 1.5z"/>
						<path class="st3" d="m332.9 21.5c0.5 0 0.5-0.8 0-0.8-0.6-0.1-0.6 0.8 0 0.8z"/>
						<path class="st3" d="m347.7 11.9c1.1 0 1.1-1.6 0-1.6-1 0-1 1.6 0 1.6z"/>
						<path class="st3" d="m326.6 36.3c1.6 0 1.6-2.4 0-2.4-1.5 0-1.5 2.4 0 2.4z"/>
						<path class="st3" d="m392.7 124.1c1.1 0 1.1-1.7 0-1.7s-1.1 1.7 0 1.7z"/>
						<path class="st3" d="m466.5 36.3c0.5 0 0.5-0.8 0-0.8-0.6 0-0.6 0.8 0 0.8z"/>
						<path class="st3" d="m529.3 127.7c0.4 0 0.4-0.6 0-0.6-0.4-0.1-0.4 0.6 0 0.6z"/>
						<path class="st3" d="m522 142.4c1.2 0 1.2-1.8 0-1.8-1.2-0.1-1.2 1.8 0 1.8z"/>
						<path class="st3" d="m524.9 435.2c1.7 0 1.7-2.7 0-2.7-1.7 0.1-1.7 2.7 0 2.7z"/>
						<path class="st3" d="m515.6 204.8c2.6 0 2.6-4 0-4-2.6 0.1-2.6 4 0 4z"/>
						<path class="st3" d="m478.2 279.6c1.1 0 1.1-1.7 0-1.7s-1.1 1.7 0 1.7z"/>
						<path class="st3" d="m406.4 191.2l-1.1-1.1c-0.9-0.9-2.3 0.5-1.4 1.4l1.1 1.1c0.9 0.8 2.3-0.6 1.4-1.4z"/>
						<path class="st3" d="m479.5 133.6v-1.1c0-0.9-0.8-1.8-1.7-1.7-0.9 0-1.7 0.8-1.7 1.7v1.1c0 0.9 0.8 1.8 1.7 1.7 0.9 0 1.7-0.7 1.7-1.7z"/>
						<path class="st3" d="m349.9 82.1v-1.1c0-1.6-1.4-3.2-3.1-3.1s-3.2 1.4-3.1 3.1v1.1c0 1.6 1.4 3.2 3.1 3.1 1.7 0 3.2-1.4 3.1-3.1z"/>
						<path class="st3" d="m328.1 153.4v-1.1c0-0.8-0.7-1.6-1.5-1.5-0.8 0-1.6 0.7-1.5 1.5v1.1c0 0.8 0.7 1.6 1.5 1.5 0.8 0 1.5-0.6 1.5-1.5z"/>
			</g>
			<g clip-path="url(#a)" opacity=".71">
						<path class="st3" d="m704.6 255.9h1.1c1.8 0 3.6-1.6 3.5-3.5s-1.5-3.5-3.5-3.5h-1.1c-1.8 0-3.6 1.6-3.5 3.5s1.6 3.6 3.5 3.5z"/>
						<path class="st3" d="m650.5 305.6v-1.1c0-1.6-1.3-3-3-3-1.6 0.1-3 1.3-3 3v1.1c0 1.6 1.3 3 3 3 1.6-0.1 3-1.4 3-3z"/>
						<path class="st3" d="m710.8 359.9h1.1c1.5 0 1.5-2.3 0-2.3h-1.1c-1.5 0.1-1.5 2.4 0 2.3z"/>
						<path class="st3" d="m724 438h-1.1c-1.7 0-3.4 1.5-3.3 3.3s1.5 3.4 3.3 3.3h1.1c1.7 0 3.4-1.5 3.3-3.3 0-1.7-1.4-3.3-3.3-3.3z"/>
						<path class="st3" d="m660.7 451.5c1.9 0 1.9-3 0-3s-1.9 3 0 3z"/>
						<path class="st3" d="m641.5 397.8c4.4 0 4.4-6.8 0-6.8s-4.4 6.8 0 6.8z"/>
						<path class="st3" d="m711.9 485.3c2.2 0 2.2-3.5 0-3.5-2.3 0-2.3 3.5 0 3.5z"/>
						<path class="st3" d="m760.3 525.8c-0.7 0.4-1.4 0.8-2.1 1.1-1.6 0.8-2.2 3.2-1.2 4.7 1 1.6 3 2.1 4.7 1.2 0.7-0.4 1.4-0.8 2.1-1.1 1.6-0.8 2.2-3.2 1.2-4.7-1-1.6-3-2.1-4.7-1.2z"/>
						<path class="st3" d="m663.8 507.6c3.6 0 3.6-5.6 0-5.6-3.5 0-3.6 5.6 0 5.6z"/>
						<path class="st3" d="m789.3 33.8v1.1c0 1 1.6 1 1.6 0v-1.1c0-1.1-1.6-1.1-1.6 0z"/>
						<path class="st3" d="m720.3 17.7v1.1c0 1.5 1.3 3 2.9 2.9s2.9-1.3 2.9-2.9v-1.1c0-1.5-1.3-3-2.9-2.9s-2.9 1.3-2.9 2.9z"/>
						<path class="st3" d="m734.8 71.9c2.2 0 2.2-3.4 0-3.4s-2.2 3.4 0 3.4z"/>
						<path class="st3" d="m747.1 277.8h-1.1c-1 0-1.9 0.8-1.8 1.8 0 1 0.8 1.8 1.8 1.8h1.1c1 0 1.9-0.8 1.8-1.8-0.1-0.9-0.8-1.8-1.8-1.8z"/>
						<path class="st3" d="m772.3 325.2l-1.1 1.1c-0.4 0.4 0.2 1 0.6 0.6l1.1-1.1c0.4-0.4-0.2-1-0.6-0.6z"/>
						<path class="st3" d="m735.4 311.4l-1.1-1.1c-0.9-0.9-2.3 0.5-1.4 1.4l1.1 1.1c0.9 0.9 2.3-0.5 1.4-1.4z"/>
						<path class="st3" d="m793.9 270.6l-1.1-1.1c-1-0.9-2.5 0.5-1.5 1.5l1.1 1.1c1 0.9 2.5-0.6 1.5-1.5z"/>
						<path class="st3" d="m756.1 219.7l1.1-1.1c0.6-0.6-0.3-1.4-0.9-0.9l-1.1 1.1c-0.5 0.6 0.4 1.5 0.9 0.9z"/>
						<path class="st3" d="m650 201.4c0.9 0 0.9-1.4 0-1.4s-0.9 1.4 0 1.4z"/>
						<path class="st3" d="m636.1 147.3h1.1c1.6 0 1.6-2.5 0-2.4h-1.1c-1.5 0-1.5 2.4 0 2.4z"/>
						<path class="st3" d="m756.1 491.5c1.5 0 1.5-2.4 0-2.4-1.6 0-1.6 2.4 0 2.4z"/>
						<path class="st3" d="m723.1 515.6c1.4 0 1.5-2.3 0-2.3-1.4 0.1-1.4 2.3 0 2.3z"/>
						<path class="st3" d="m748.1 466.3c0.7 0 0.7-1.1 0-1.1-0.7-0.1-0.7 1.1 0 1.1z"/>
						<path class="st3" d="m661.1 473.9c1.7 0 1.7-2.7 0-2.7s-1.7 2.7 0 2.7z"/>
						<path class="st3" d="m638.7 482.3c0.9 0 0.9-1.5 0-1.5s-1 1.5 0 1.5z"/>
						<path class="st3" d="m635.8 4.3c1.6 0 1.6-2.4 0-2.4-1.5 0-1.5 2.4 0 2.4z"/>
						<path class="st3" d="m701.9 92.1c1.1 0 1.1-1.7 0-1.7-1.1-0.1-1.1 1.7 0 1.7z"/>
						<path class="st3" d="m775.6 4.3c0.5 0 0.5-0.8 0-0.8s-0.5 0.8 0 0.8z"/>
						<path class="st3" d="m787.3 247.5c1.1 0 1.1-1.7 0-1.7-1 0.1-1 1.7 0 1.7z"/>
						<path class="st3" d="m715.6 159.1l-1.1-1.1c-0.9-0.9-2.3 0.5-1.4 1.4l1.1 1.1c0.9 0.8 2.3-0.5 1.4-1.4z"/>
						<path class="st3" d="m788.7 101.6v-1.1c0-0.9-0.8-1.8-1.7-1.7-0.9 0-1.7 0.8-1.7 1.7v1.1c0 0.9 0.8 1.8 1.7 1.7s1.7-0.8 1.7-1.7z"/>
						<path class="st3" d="m659.1 50v-1.1c0-1.6-1.4-3.2-3.1-3.1s-3.2 1.4-3.1 3.1v1.1c0 1.6 1.4 3.2 3.1 3.1 1.7 0 3.2-1.3 3.1-3.1z"/>
						<path class="st3" d="m637.3 121.4v-1.1c0-0.8-0.7-1.6-1.5-1.5-0.8 0-1.6 0.7-1.5 1.5v1.1c0 0.8 0.7 1.6 1.5 1.5 0.7 0 1.5-0.7 1.5-1.5z"/>
			</g>
			<g clip-path="url(#a)">
				<radialGradient id="z" cx="214.99" cy="334.5" r="156.51" gradientUnits="userSpaceOnUse">
					<stop stop-color="#F1F2F2" offset="0"/>
					<stop stop-color="#FFEE76" offset="1"/>
				</radialGradient>
				<path d="m263.1 412.1c-70.4 0-127.5-57.1-127.5-127.5 0-44.5 22.8-83.6 57.3-106.5-76.1 10.9-134.6 76.4-134.6 155.5 0 86.8 70.4 157.2 157.2 157.2 80.8 0 147.3-61 156.2-139.4-22.5 36.4-62.7 60.7-108.6 60.7z" fill="url(#z)"/>
					<path class="st3" d="m264.5 411.7c-34.1-0.2-67.1-13.8-91.1-38.3s-37.2-58.1-36.4-92.4c0.9-37.9 19.1-74 49-97.4 1.7-1.3 3.5-2.6 5.3-3.9 0.3-0.2 3-2 3-2.1s-3 0.5-2.8 0.4c-4.1 0.7-8.2 1.5-12.3 2.5-4.9 1.2-9.8 2.6-14.6 4.2-15.8 5.2-30.7 13-44.1 22.9-56.7 42.1-78.8 119.1-52.5 184.8 25.7 64.1 92.2 104.5 160.8 98 64.5-6.1 121-51 139.1-113.7 2.4-8.4 4.1-17 5.1-25.7 0 0.4-2.7 0.4-2.9 0.8-22.7 36.6-62.3 59.7-105.6 59.9-1 0-1.9 0.8-2.9 0.8 45-0.3 87.5-23.1 111.5-61.4-1 0.3-1.9 0.5-2.9 0.8-7.9 67.8-61.1 126.4-129.4 136.8-64.9 9.9-130.6-22.6-162-80.2-31.9-58.6-22.5-133.1 22.8-181.9 10.9-11.8 23.6-21.8 37.5-29.8 7-4 14.4-7.5 21.9-10.4 5.9-2.2 11.9-4.1 18.1-5.6 2.2-0.5 4.5-1 6.7-1.4 0.9-0.2 1.8-0.3 2.7-0.5 1.9-0.3 3.1-1.3 1.5 0.4-2.9 3-7.2 5.2-10.5 7.9-3.3 2.8-6.5 5.8-9.6 8.9-6.1 6.3-11.5 13.2-16.2 20.5-9.6 15.1-15.9 32.1-18.5 49.8-4.8 32.9 3.6 67 23.3 93.8 18.8 25.6 47 43.7 78.2 49.8 8.1 1.6 16.4 2.3 24.7 2.4 1.2 0.1 2.2-0.7 3.1-0.7z"/>
			</g>
			<g clip-path="url(#a)">
				<path class="st27" d="m0 342.8v269.2h792v-386.8c-25.9-14.7-58.1-8-74.6 14-14.2 18.9-14.4 46.1 0 66.8-19.2 10.3-27.7 32.4-21.1 50.8 5.4 14.8 19.9 25.2 36.8 26.3-8.5-9.5-22.1-11.4-31.6-5.3-7.4 4.8-11.4 13.9-10.3 23.4-5.7 7.2-14.7 20.6-19.5 39.8-4.8 18.9-3.3 34.9-1.8 43.9-6-8.6-16.1-13.3-26.3-12.3-11.5 1.2-21.3 9.5-24.6 21.1 7.3-18.1-1.2-38.4-17.5-45.6-14.3-6.3-32.2-1.4-42.1 12.3-10.3-12.9-28.3-16.5-42.1-8.8-12.7 7.1-19.3 22.2-15.8 36.8-0.9-0.5-17.7-10.6-35.1-1.8-12.2 6.2-19.8 19.3-19.3 33.3-8-8.4-18.2-16-28.1-14-13 2.6-20.1 20.8-23.1 19.3-2.6-1.3 4.3-13.3 0.3-24.6-3.4-9.6-13.4-14.7-21.1-17.5 9-15.7 3.7-35.3-10.5-43.9-12.6-7.6-29.9-4.9-40.4 7-1.8-18-17.9-30.3-33.3-28.1-12.8 1.9-23.5 13.5-24.6 28.1-1.7-1.2-33.8-23.9-70.2-8.8-25.3 10.6-42.4 35.2-43.9 63.2 18.1-31.5 4.8-70.8-24.6-84.2-26-11.9-59.7-1.3-75.4 26.3 22.3-19.4 27.1-51.8 12.3-75.4-13-21-39.3-31.2-64.5-24.5z"/>
					<path class="st28" d="m-3.6 340.1v269.2c0 2.7 3.4 6.7 6.2 6.7h759.8c10 0 20.7 1.1 30.7 0h1.3c0.8 0 0.9-0.9 0.9-1.4v-370.9c0-5 0.5-10.3 0-15.3v-0.7c0-2.5-2.7-5.2-4.7-6.3-23.1-12.7-53.3-10.7-72.2 8.6-20.4 20.8-19.4 53-3.8 76.2-0.3-1.4-0.5-2.8-0.8-4.1-17.4 9.7-27.5 30-22.3 49.7 5.3 19.9 23.8 33.7 43.9 35.3 3 0.2-1.5-6-1.9-6.4-8.4-8.9-21.6-13.7-33.2-8.1-5.9 2.9-10.2 8.3-12.1 14.5-1 3.3-0.4 6.6-1.1 9.8-0.5 2.4-2.5 4.4-3.9 6.4-15.5 23-21.7 51.4-17.2 78.8 1.7 0.4 3.5 0.9 5.2 1.3-7.2-9.8-18.9-16.5-31.3-14.9-11.9 1.5-21.3 10.4-24.7 21.7-0.8 2.8 5.9 9.7 7 6.7 6.8-17.9-0.5-38.3-16-49.2-16.4-11.4-38.4-7-50.3 8.6 1.6 0.8 3.2 1.7 4.8 2.5-10.4-12.5-27.2-19.4-42.9-13.1-16.4 6.5-23.6 24.2-20 40.8 0.8-0.6 1.5-1.3 2.3-1.9-9.8-6-23.1-7.6-33.8-3.4-14.8 5.8-23.3 20.4-23.1 36 1.4 0.1 2.9 0.2 4.3 0.3-8.8-9-22.5-20.5-35.8-14.3-4.8 2.3-8.5 6.2-11.8 10.3-1.3 1.7-2.6 3.5-4 5.1-0.4 0.5-1.3 1.2-1.5 1.7-0.7 1.6-1.9-0.8 0.7 1.3 1.1 1.3 2.1 2.6 3.2 3.9 0.8 1.7 0.2 0.3 0.4-0.6 0.3-1 0.4-2.1 0.7-3.2 0.5-2.5 1-5 1.2-7.5 0.5-5.8-0.5-11.5-3.4-16.6-5.3-9.4-14.5-14.9-24.3-18.7 1.8 2.5 3.6 4.9 5.4 7.4 8.7-16 3.8-35.7-9.9-47.2-14.3-12-35-10.5-47.6 3.1 2.3 2.2 4.5 4.3 6.8 6.5-2-16.5-14.9-32.5-32-34.8-18-2.3-31.5 12.6-33.1 29.5 1.1-0.2 2.3-0.3 3.4-0.5-18.4-13.3-44.1-18.7-66-12.1-29.8 8.9-49.6 36.4-51.5 67-0.1 2.1 5.4 9.1 7.1 6 13-23.4 9.9-52.1-6.5-73-16.1-20.5-43.1-28.8-67.6-19.6-14.1 5.2-25.4 15.2-32.9 28.1-1.3 2.1 4.6 9.1 6.7 7.2 21-18.7 27.4-49.8 14.2-74.9-13.7-26.2-43.7-40.2-72.5-33-3.1 0.8 2.4 8.9 5.3 8.1 24.2-6 52.6 2.9 63 27 9.7 22.6 1.6 49.1-16.3 65 2.2 2.4 4.5 4.8 6.7 7.2 14.8-25.2 48.3-38.9 75.4-24.8 27.5 14.3 31.7 50.8 17.6 76 2.4 2 4.7 4 7.1 6 1.8-29.1 21.3-55.6 49.6-64.1 20-6 44.1-2.1 61.1 10.2 1.3 0.9 3.2 1.7 3.4-0.5 1.3-13 10.8-25.1 24.2-26.7 13.8-1.7 24.9 8 26.5 21.4 0.2 1.6 4.6 8.9 6.8 6.5 9.5-10.3 25.9-15 38.5-7 12.3 7.8 12 25.2 5.7 36.7-1.4 2.6 3.5 6.6 5.4 7.4 5 1.9 10.8 4.4 14.1 8.8 3.8 5.1 3 12.2 1.8 18-0.7 3.4-2 6.9-0.4 10.2 1.1 2.3 4.2 6 7.2 4.9 2.3-0.8 4-4 5.3-5.8 2.6-3.3 5.2-6.6 8.5-9.3 11.8-9.4 23.9-0.9 32.8 8.2 0.9 0.9 4.4 3.2 4.3 0.3-0.4-26.6 28.6-44.8 51.9-30.5 1.8 1.1 2.7-0.2 2.3-1.9-3-13.9 3.6-28.4 16.2-35.1 12-6.3 27.9-3.9 36.7 6.6 0.5 0.7 3.7 3.9 4.8 2.5 9.2-12.2 26-18.8 40.6-12.2 14.6 6.7 17.6 24.4 12.3 38.3 2.3 2.2 4.7 4.5 7 6.7 6-19.3 32.3-28.9 45.7-10.8 0.6 0.8 5.8 4.7 5.2 1.3-4.1-24.9 0.8-50.6 13.8-72.2 1.3-2.2 2.7-4.3 4.2-6.4 0.9-1.3 2.7-2.8 3.2-4.3 0.8-2.7-0.1-6.3 0.5-9.2 0.7-3.1 2.1-6.2 4.1-8.8 8.2-10.6 24-10.7 33-1.2-0.6-2.1-1.3-4.3-1.9-6.4-17.1-1.4-31.9-12.6-32.8-30.5-0.8-16.3 9-30.9 22.9-38.6 1.2-0.7-0.3-3.5-0.8-4.1-14.6-21.6-12.2-51.9 7.3-69.8 18-16.5 45-18.6 66-7-1.6-2.1-3.1-4.2-4.7-6.3v380.9c0 1.2-0.6 4.1 0 5.2 0.1 0.1 0 0.5 0 0.7 0.3-0.5 0.6-1 0.9-1.4h-759.8c-10.1 0-20.7-0.9-30.7 0h-1.3c2.1 2.2 4.1 4.5 6.2 6.7v-269.2c0.3-2.7-6.9-9.1-6.9-5.2z"/>
			</g>
			<g clip-path="url(#a)">
				<path class="st27" d="m0 532.6v79.4h792v-122.3c-11.2-15.9-31.1-21.8-46.5-15.3-19 8-28.9 33.7-17.5 55.7-10.4-39.2-50-55.8-73.7-45.1-21.9 9.9-35.6 45.5-19.3 78.5-6.5-17.4-21.6-29.6-38.6-31.1-21.9-1.9-43.8 14.4-49.1 39-8.5-30.5-37-48.8-63.2-44.3-19.3 3.3-35.5 18.6-42.1 39 3.5-31.6-17.9-57.5-40.4-60.1-25-2.9-54.8 22.9-52.6 59.2-1-15.4-11.6-28.6-26.3-32.9-15.1-4.4-31.4 1.5-40.4 14.4 2.9-14.7-6.8-29.1-21.1-32-13.8-2.8-27.8 5.8-31.6 19.7-1-25-19.2-43.4-36.8-44.3-20.9-1-44.4 22.4-40.4 53-1.6-1.5-16.2-14.7-36.8-10.9-21.9 3.9-30.9 23.4-31.6 25 4.7-22.3-8.4-44.6-29.8-51.3-21.9-6.8-46 4.9-54.2 26.7z"/>
					<path class="st28" d="m-3.4 530.4v79.4c0 2.5 1.9 6.9 4.9 6.9h759.8c10.2 0 20.5 0.4 30.7 0h1.3c1.3 0 1.8-1.3 1.8-2.4v-119.7c0-6.7-4.2-11.4-9.2-15.8-9.1-8-21.4-12.9-33.6-11.3-13 1.6-23.5 10.3-28.8 22.1-6.2 13.5-4.8 28.8 1.7 41.8 2.1 4.3 7 4.2 5.5-1.4-6.8-24.5-26.1-46.4-51.7-51.7-10-2.1-20.8-1.6-29.9 3.5-11.3 6.3-18.8 18.3-22.3 30.5-5.1 17.5-2.4 36.1 5.4 52.4 2 4.2 7.6 4.1 5.5-1.4-7.9-20.3-26.7-37.4-49.7-35.7-22.2 1.7-39.4 19.5-44.3 40.5 2.1 1 4.2 2.1 6.3 3.1-7.1-24.5-27.3-45.7-53.3-49.1-27.1-3.5-49.9 16.1-58.2 40.7l6.6 5.4c2.4-24.8-9.4-52.2-32.7-63.3-20.2-9.6-42.8 0.8-55.3 17.8-8.6 11.6-12.4 25.9-11.7 40.2 2.2 1.1 4.5 2.2 6.7 3.4-1.4-16.6-12.4-32.2-28.3-37.8-16.4-5.8-34.5 0.4-44.5 14.3 2 2.4 4.1 4.8 6.1 7.1 2.7-16-5.9-33.2-21.7-38.7-16-5.6-32.7 4.3-37.5 20.1l6.6 5.4c-1.3-23.4-18.9-53.9-46.1-51-26.8 2.9-40.6 32.2-37.8 56.4 1.4-0.7 2.9-1.5 4.3-2.2-11.6-10.7-28.4-15.5-43.7-11.2-12.5 3.4-23.3 13.3-28.7 25.3 2.2 2.1 4.3 4.2 6.5 6.4 4.7-24.2-8.7-50.3-32.4-58.5s-49.1 4.7-58.1 27.6c-1.3 3.3 4.7 11 6.5 6.4 7.4-18.7 27.7-30.5 47.7-26.5 20.8 4.2 33.9 23.9 29.9 44.7-0.6 2.9 4.3 11.3 6.5 6.4 4.2-9.3 13.9-18.4 24.3-22.1 13.3-4.7 29.4-1.4 39.9 8.2 2.4 2.2 4.7 1 4.3-2.2-2.4-20.5 9.6-44 30.9-48.9 22-5.1 38.5 16.9 39.5 36.7 0.1 2.2 1 4.6 2.8 5.9 1.3 0.9 3.2 1.5 3.8-0.5 3.5-11.5 14.3-19.6 26.4-18.7 12.8 0.9 21.8 12 19.7 24.6-0.4 2.1 3.3 11 6.1 7.1 8.2-11.3 22.2-17.5 36.1-14.4 13.7 3 23.2 13.9 24.4 27.8 0.3 3.1 7 8.8 6.7 3.4-1.2-25.3 15.4-53.2 42.2-56.7 11.9-1.6 23.2 3.5 31.3 12.1 10.4 11 14.1 26.2 12.7 41-0.3 2.6 5 10.1 6.6 5.4 7.4-21.9 27-39.5 51.1-38.2 23.1 1.3 41.6 18.7 47.9 40.3 0.5 1.7 5.3 7.3 6.3 3.1 4.2-18.1 18.1-33.9 37-37.1 19.2-3.3 37.5 8.3 44.5 26.1 1.8-0.5 3.7-0.9 5.5-1.4-10.7-22.3-8.1-55 14-69.9 16.3-10.9 38.3-5.2 52.8 6.1 10.4 8.1 17.2 19.3 20.7 31.9 1.8-0.5 3.7-0.9 5.5-1.4-8-16.1-3.1-37.4 12.3-47.3 15.8-10.1 36.8-3.9 47.4 10.7-0.5-1.6-1.1-3.1-1.6-4.7v122.4c0.6-0.8 1.2-1.6 1.8-2.4h-759.8c-10.1 0-20.7-1-30.7 0h-1.3c1.6 2.3 3.3 4.6 4.9 6.9v-79.4c0-2.2-1.2-5.2-3.2-6.3-1.8-0.9-3.6-0.5-3.6 1.8z"/>
			</g>
			<g clip-path="url(#a)">
					<path class="st28" d="m61.4 421.7c-11.2 9.3-19 24.4-17.4 39.2 1.4 12.5 12.4 27.6 26.5 23.9 12.3-3.2 24.6-17.6 18.9-30.5-2.2-4.9-6.5-10.2-12.1-11.1-7.2-1.2-12.1 4.7-11.7 11.5 0.1 2.1 1.9 4.6 3.5 5.9 0.8 0.7 3.1 2.3 3 0-0.3-5.1 3.4-9.4 8.7-9.3 5.7 0.1 3.6 7.1 1.9 10.6-3.8 7.6-13.5 15.7-22.3 15.2-12.6-0.8-10.6-16.7-8-25.4 2.7-8.7 7.9-16.2 14.9-22 2.1-1.7-4-9.6-5.9-8z"/>
			</g>
			<g clip-path="url(#a)">
					<path class="st28" d="m263.4 443.9c-2.7 11.3 8.3 19 18.7 16.6 4.5-1.1 9.5-3.9 10.9-8.7 1.5-5-2.5-9.1-7.4-9.2-2.2-0.1-5.3 0.5-6.4 2.7-1 2 0.8 3.6 2.8 3.6 2.4 0.1 1.5 3.7 0.4 4.7-1.5 1.4-3.5 1-5.2 0.1-3.9-2-5-6.6-4.1-10.6 1.1-4.2-8.8-3-9.7 0.8z"/>
			</g>
			<g clip-path="url(#a)">
					<path class="st28" d="m368.8 480.9c-1.8 2.9-7 11.5-11.3 8.6-2-1.3-3.1-4.3-3-6.6 0-1 0.2-2.1 0.7-3 0.4-0.4 0.8-0.9 1.2-1.3 1.9-0.9 1.2-1.4-2.2-1.4 1.7 1 4.9 1.9 6.9 1.4 1.6-0.4 2.2-0.9 0.4-1.9-4-2.3-11.6-4-15.2 0-3.8 4.1-0.6 10.2 3.2 13 4.3 3.1 10.6 4.5 15.8 3.9 6.5-0.7 10.1-5.5 13.3-10.7 0.6-0.8-8.3-4.3-9.8-2z"/>
			</g>
			<g clip-path="url(#a)">
					<path class="st28" d="m499.9 490.1c3.8 3 7 7.6 7.4 12.6 0.2 2.1-0.2 5.3-2.2 6.4-2.1 1.1-3.2-2.3-3.8-4.1-0.8-2.4-10.5-2.8-9.7-0.2 2.7 8.1 14.4 11.7 21.7 7.3 9.1-5.5 1.2-18.2-4.6-22.8-1.7-1.4-4.6-1.7-6.7-1.5-1 0.2-3.8 0.9-2.1 2.3z"/>
			</g>
			<g clip-path="url(#a)">
					<path class="st28" d="m561 455.7c-8 3.1-12.2 14.4-9.9 22.4 2.5 8.9 14.9 12 22.9 12.5 7.2 0.4 20.2-3.7 16.6-13.6-2.2-6-16.9-10.3-18.1-1.8-0.4 2.8 9.4 4.7 9.7 2.4 0.1-0.9-1.6-3.9-2.1-3.5 0.5-0.5 1.1 3.8 1.1 4.2-0.2 2-1.2 3.8-2.6 5.2-4.1 3.9-12 4-15.9-0.3-5.6-6.1-1.2-20.8 6.2-23.7 3.2-1.2-5.5-4.7-7.9-3.8z"/>
			</g>
			<g clip-path="url(#a)">
					<path class="st28" d="m148.2 547.9c5.8 1.6 8.6 8.5 10.5 13.7 0.7 1.9 1.4 3.9 1.1 6l-0.6 2.1c0.7-0.9 0.4-1.1-1.1-0.6-3.4-0.6-8-0.7-7.1-5.7 0.4-2.5-8.6 0.3-9.2 3.2-2.2 12.4 20.2 8.3 25 2.6 4.1-4.9 1.6-10.9-0.7-16.1-2.3-5.1-5.3-9.1-10.8-10.7-2.6-0.6-10.7 4.5-7.1 5.5z"/>
			</g>
			<g clip-path="url(#a)">
					<path class="st28" d="m345.1 552.9c-0.2 5.2-1.8 12.3 1.7 16.7 2.8 3.4 7.8 5.6 11.7 7.3 8.7 3.9 19.2 5.8 27.5 0.1 7.9-5.5 10.6-16.8 5.8-25.2-4-7-14.9-11.2-22.7-9.5-1 0.2 2.9 1.9 3.1 1.9 1.7 0.6 4.2 1.6 6.1 1.2 2.4-0.2 2.8-0.3 1-0.5-1.7-0.4-1.5 0 0.6 1.3 1 1 1.8 2.1 2.5 3.3 1.4 2.4 2 5.3 2.1 8.1 0.2 5.6-2 11.3-6.2 15.1-5.6 5-12.5 5.9-18.8 1.9-6.9-4.3-5.2-11.8-4.9-18.9 0.1-1.8-9.5-3.3-9.5-2.8z"/>
			</g>
			<g clip-path="url(#a)">
					<path class="st28" d="m623.2 530.8c2.7 14 9.3 27.4 18.6 38.3 4.4 5.1 9.3 9.2 16 10.3 6.2 1 13.3-0.4 17.3-5.6 5.8-7.6 6.2-25.2-3-30.9-4.1-2.6-12.3-1.6-12.6 4.3-0.2 4.1 3.3 10 6.8 12 1 0.6-0.6-3.5-0.7-3.6-0.8-1.6-1.9-4.1-3.5-5.1 1.4 4.4 2.5 5.1 3.5 2 0.6-0.6 1.3-1.1 2.2-1.4 1.2-0.5 2.7-0.6 4-0.6 1.2 0 2.3 0.2 3.4 0.6-1.1-2.7-1.6-2.9-1.3-0.6-0.4 1.3-0.1 3.2-0.2 4.6-0.8 7.8-4.9 13.9-12.8 15.6-18.7 3.8-29.8-17.4-32.8-32.6-0.4-2.1-1.7-4.4-3-6.2-0.3-0.6-2.3-3.2-1.9-1.1z"/>
			</g>
			<g clip-path="url(#a)">
					<path class="st28" d="m711.2 376.7c10.9 3.3 22.4 7.5 29.2 17.4 2.9 4.2 4.9 9.5 4.5 14.7-0.3 3.3-2 6.1-5.4 6.7-3.3 0.5-6.3-1.9-5.1-5.4 1.5-4.3-8.4-5.3-9.6-1.6-5.6 16.2 29.6 18.5 30.2-0.5 0.6-20.9-21.9-31.4-38.6-36.5-2-0.6-5.4-0.8-6.8 1.1-1.6 1.7-0.3 3.5 1.6 4.1z"/>
			</g>
			<g clip-path="url(#a)">
					<path class="st28" d="m718.9 378.9c12.4 5.1 26.3 6.3 39.3 2.9 11.7-3 24.8-9.9 26.2-23.2 1.3-11.7-7.6-23.3-20-21.9-4.5 0.5-9.3 3.7-9.3 8.7 0 5.4 6.3 7.7 10.8 6.6 6.3-1.5-0.9-5.7-4.5-4.9-0.3 0.1-0.6 0.1-1 0.2 1.7 0.2 3.3 0.4 5 0.7-1.4-0.5 0.2-9.5 5-4.4 2.1 2.2 3.3 5.2 3.9 8.1 1.3 7-1.5 14.3-7.1 18.5-12 9.1-28.9 10.8-42.7 5.1-1.8-0.7-5.3-1.5-6.9 0-1.7 1.4-0.4 2.9 1.3 3.6z"/>
			</g>
			<g clip-path="url(#a)">
					<path class="st28" d="m716.2 313.3c7.1-3.9 14.4-7.1 22.5-7.9 4.7-0.4 20.9 0.3 20.4 7.7-0.3 4.4 7.4 9.7 7.8 3.6 0.8-11.6-10.8-18.5-20.8-20.3-12.3-2.1-24.3 2.4-34.9 8.2-4.1 2.3 0.9 11 5 8.7z"/>
			</g>
			<g clip-path="url(#a)" opacity=".26">
				<radialGradient id="aa" cx="81.377" cy="468.35" r="415.54" gradientUnits="userSpaceOnUse">
					<stop offset=".1"/>
					<stop offset=".1108"/>
					<stop stop-color="#050000" offset=".1525"/>
					<stop stop-color="#211800" offset=".1996"/>
					<stop stop-color="#34290B" offset=".2529"/>
					<stop stop-color="#423512" offset=".3152"/>
					<stop stop-color="#4C3E16" offset=".3922"/>
					<stop stop-color="#524318" offset=".5002"/>
					<stop stop-color="#544418" offset=".8"/>
					<stop offset="1"/>
				</radialGradient>
				<circle cx="81.4" cy="468.3" r="415.5" fill="url(#aa)" opacity=".25"/>
				<radialGradient id="aj" cx="387.03" cy="235.84" r="13.851" gradientUnits="userSpaceOnUse">
					<stop stop-color="#CAE095" offset="0"/>
					<stop stop-color="#AFC082" offset=".023894"/>
					<stop stop-color="#79815A" offset=".094338"/>
					<stop stop-color="#50543B" offset=".1703"/>
					<stop stop-color="#333524" offset=".2502"/>
					<stop stop-color="#1C1D0F" offset=".3348"/>
					<stop stop-color="#030300" offset=".4256"/>
					<stop offset=".525"/>
					<stop offset=".6374"/>
					<stop offset=".7736"/>
					<stop offset="1"/>
				</radialGradient>
				<circle class="st9" cx="387" cy="235.8" r="13.9"/>
				<radialGradient id="ab" cx="520.11" cy="134.62" r="13.851" gradientUnits="userSpaceOnUse">
					<stop stop-color="#CAE095" offset="0"/>
					<stop stop-color="#AFC082" offset=".023894"/>
					<stop stop-color="#79815A" offset=".094338"/>
					<stop stop-color="#50543B" offset=".1703"/>
					<stop stop-color="#333524" offset=".2502"/>
					<stop stop-color="#1C1D0F" offset=".3348"/>
					<stop stop-color="#030300" offset=".4256"/>
					<stop offset=".525"/>
					<stop offset=".6374"/>
					<stop offset=".7736"/>
					<stop offset="1"/>
				</radialGradient>
				<circle cx="520.1" cy="134.6" r="13.9" fill="url(#ab)"/>
				<radialGradient id="ac" cx="502.56" cy="147.97" r="103.89" gradientUnits="userSpaceOnUse">
					<stop offset=".05"/>
					<stop stop-color="#000800" offset=".1912"/>
					<stop stop-color="#072D0F" offset=".3325"/>
					<stop stop-color="#17461D" offset=".4638"/>
					<stop stop-color="#205A26" offset=".5812"/>
					<stop stop-color="#26672B" offset=".6806"/>
					<stop stop-color="#286C2C" offset=".75"/>
					<stop stop-color="#336C2A" offset=".7553"/>
					<stop stop-color="#5B6C1A" offset=".7931"/>
					<stop stop-color="#6E6B07" offset=".8244"/>
					<stop stop-color="#776B00" offset=".8475"/>
					<stop stop-color="#7B6B00" offset=".86"/>
					<stop stop-color="#786800" offset=".8801"/>
					<stop stop-color="#6F6100" offset=".898"/>
					<stop stop-color="#635500" offset=".9151"/>
					<stop stop-color="#524500" offset=".9317"/>
					<stop stop-color="#3E3300" offset=".9479"/>
					<stop stop-color="#271E00" offset=".9639"/>
					<stop stop-color="#090000" offset=".9796"/>
					<stop offset=".9948"/>
					<stop offset="1"/>
				</radialGradient>
				<circle cx="502.6" cy="148" r="103.9" fill="url(#ac)" opacity=".2"/>
				<line class="st11" x1="169.1" x2="520.1" y1="401.6" y2="134.6"/>
				<radialGradient id="t" cx="169.12" cy="401.6" r="277.03" gradientUnits="userSpaceOnUse">
					<stop offset="0"/>
					<stop stop-color="#93432A" offset=".73"/>
					<stop offset="1"/>
				</radialGradient>
				<circle cx="169.1" cy="401.6" r="277" fill="url(#t)" opacity=".15"/>
				<radialGradient id="u" cx="169.12" cy="401.6" r="138.51" gradientUnits="userSpaceOnUse">
					<stop stop-color="#fff" offset=".15"/>
					<stop stop-color="#D7C0BE" offset=".2134"/>
					<stop stop-color="#B68A8A" offset=".2931"/>
					<stop stop-color="#A16A6B" offset=".362"/>
					<stop stop-color="#95585B" offset=".4166"/>
					<stop stop-color="#915155" offset=".45"/>
					<stop stop-color="#78312E" offset=".5442"/>
					<stop stop-color="#5C0E05" offset=".6472"/>
					<stop stop-color="#410000" offset=".7362"/>
					<stop stop-color="#200000" offset=".8068"/>
					<stop offset=".85"/>
					<stop stop-color="#120000" offset=".856"/>
					<stop stop-color="#300000" offset=".8623"/>
					<stop stop-color="#470000" offset=".8686"/>
					<stop stop-color="#5C0000" offset=".875"/>
					<stop stop-color="#751400" offset=".8815"/>
					<stop stop-color="#912A15" offset=".888"/>
					<stop stop-color="#B44126" offset=".8945"/>
					<stop stop-color="#D65836" offset=".9"/>
					<stop stop-color="#BD472B" offset=".9063"/>
					<stop stop-color="#9D311B" offset=".916"/>
					<stop stop-color="#801D09" offset=".9262"/>
					<stop stop-color="#690900" offset=".9367"/>
					<stop stop-color="#530000" offset=".9475"/>
					<stop stop-color="#410000" offset=".9588"/>
					<stop stop-color="#290000" offset=".9707"/>
					<stop stop-color="#0F0000" offset=".9838"/>
					<stop offset="1"/>
				</radialGradient>
				<circle cx="169.1" cy="401.6" r="138.5" fill="url(#u)" opacity=".5"/>
				<radialGradient id="v" cx="169.12" cy="401.6" r="115.43" gradientUnits="userSpaceOnUse">
					<stop stop-color="#fff" offset=".15"/>
					<stop stop-color="#9C9593" offset=".2824"/>
					<stop stop-color="#5A5250" offset=".4253"/>
					<stop stop-color="#302A28" offset=".5636"/>
					<stop stop-color="#0F0704" offset=".6936"/>
					<stop offset=".8134"/>
					<stop offset=".9192"/>
					<stop offset="1"/>
				</radialGradient>
				<circle cx="169.1" cy="401.6" r="115.4" fill="url(#v)"/>
				<polyline class="st15" points="169.1 401.6 332.4 480.2 169.1 401.6 5.8 323 169.1 401.6 90.5 564.9 169.1 401.6 247.7 238.3 169.1 401.6 360.4 653.3 169.1 401.6 -22.1 149.9 169.1 401.6 -82.6 592.9 169.1 401.6 420.9 210.3 169.1 401.6 168.6 406.3 169.1 401.6 169.7 396.9 169.1 401.6 164.5 401.1 169.1 401.6 173.8 402.1 169.1 401.6 176.8 412.7 169.1 401.6 161.4 390.6 169.1 401.6 158.1 409.3 169.1 401.6 180.2 393.9 169.1 401.6 272.8 642 169.1 401.6 65.5 161.2 169.1 401.6 -71.3 505.2 169.1 401.6 409.5 298 169.1 401.6 466.7 550.3 169.1 401.6 -128.4 252.9 169.1 401.6 20.4 699.1 169.1 401.6 317.8 104.1 169.1 401.6 279.2 461.7 169.1 401.6 59 341.5 169.1 401.6 109.1 511.7 169.1 401.6 229.2 291.5 169.1 401.6 405.2 969.6 169.1 401.6 -66.9 -166.4 169.1 401.6 -398.8 637.7 169.1 401.6 737.1 165.5 169.1 401.6 432.4 709.2 169.1 401.6 -94.2 94 169.1 401.6 -138.4 664.9 169.1 401.6 476.7 138.3 169.1 401.6 114 708.5 169.1 401.6 224.3 94.7 169.1 401.6 -137.8 346.4 169.1 401.6 476 456.8 169.1 401.6 467.1 691.8 169.1 401.6 -128.8 111.4 169.1 401.6 -121 699.5 169.1 401.6 459.3 103.7 169.1 401.6 201 447.7 169.1 401.6 137.3 355.5 169.1 401.6 123 433.4 169.1 401.6 215.3 369.8 169.1 401.6 242.3 564.3 169.1 401.6 95.9 238.9 169.1 401.6 6.4 474.8 169.1 401.6 331.8 328.4 169.1 401.6 119.1 1035.3 169.1 401.6 219.1 -232.1 169.1 401.6 -464.6 351.6 169.1 401.6 802.9 451.6 169.1 401.6 40.3 960.4 169.1 401.6 298 -157.2 169.1 401.6 -389.7 272.7 169.1 401.6 727.9 530.5"/>
				<radialGradient id="w" cx="520.11" cy="134.62" r="207.77" gradientUnits="userSpaceOnUse">
					<stop offset=".64"/>
					<stop offset=".7002"/>
					<stop offset=".7219"/>
					<stop offset=".7374"/>
					<stop offset=".7499"/>
					<stop offset=".7606"/>
					<stop stop-color="#000100" offset=".7701"/>
					<stop stop-color="#001200" offset=".7787"/>
					<stop stop-color="#002300" offset=".7866"/>
					<stop stop-color="#003306" offset=".7936"/>
					<stop stop-color="#004510" offset=".8"/>
					<stop stop-color="#0F3E0A" offset=".8034"/>
					<stop stop-color="#272F00" offset=".812"/>
					<stop stop-color="#302000" offset=".8207"/>
					<stop stop-color="#351000" offset=".8292"/>
					<stop stop-color="#380000" offset=".8375"/>
					<stop stop-color="#390000" offset=".8455"/>
					<stop stop-color="#3A0000" offset=".8531"/>
					<stop stop-color="#3A0000" offset=".86"/>
					<stop stop-color="#310000" offset=".8632"/>
					<stop stop-color="#200" offset=".8694"/>
					<stop stop-color="#150000" offset=".8765"/>
					<stop stop-color="#090000" offset=".8841"/>
					<stop stop-color="#010000" offset=".8926"/>
					<stop offset=".9021"/>
					<stop offset=".9132"/>
					<stop offset=".927"/>
					<stop offset=".9464"/>
					<stop offset="1"/>
				</radialGradient>
				<circle cx="520.1" cy="134.6" r="207.8" fill="url(#w)" opacity=".5"/>
				<radialGradient id="ad" cx="403.26" cy="223.5" r="18.393" gradientUnits="userSpaceOnUse">
					<stop offset=".1"/>
					<stop offset=".1575"/>
					<stop stop-color="#0B1D1E" offset=".2709"/>
					<stop stop-color="#20393D" offset=".3872"/>
					<stop stop-color="#2F5259" offset=".5047"/>
					<stop stop-color="#396874" offset=".6234"/>
					<stop stop-color="#417889" offset=".7442"/>
					<stop stop-color="#448396" offset=".8681"/>
					<stop stop-color="#46879B" offset="1"/>
				</radialGradient>
				<circle class="st18" cx="403.3" cy="223.5" r="18.4"/>
				<radialGradient id="ae" cx="161.79" cy="407.18" r="45.229" gradientUnits="userSpaceOnUse">
					<stop offset=".1"/>
					<stop offset=".2117"/>
					<stop stop-color="#0D0000" offset=".336"/>
					<stop stop-color="#211000" offset=".4632"/>
					<stop stop-color="#2E1D06" offset=".5919"/>
					<stop stop-color="#38260E" offset=".7227"/>
					<stop stop-color="#3E2B12" offset=".857"/>
					<stop stop-color="#402D14" offset="1"/>
				</radialGradient>
				<circle class="st19" cx="161.8" cy="407.2" r="45.2"/>
				<radialGradient id="af" cx="102.52" cy="452.27" r="68.215" gradientUnits="userSpaceOnUse">
					<stop offset=".1"/>
					<stop offset=".1505"/>
					<stop stop-color="#00000D" offset=".2648"/>
					<stop stop-color="#081728" offset=".3821"/>
					<stop stop-color="#14253D" offset=".5005"/>
					<stop stop-color="#1A304D" offset=".6203"/>
					<stop stop-color="#1E385A" offset=".7421"/>
					<stop stop-color="#203D62" offset=".867"/>
					<stop stop-color="#213E65" offset="1"/>
				</radialGradient>
				<circle class="st20" cx="102.5" cy="452.3" r="68.2"/>
				<radialGradient id="ag" cx="241.03" cy="346.9" r="44.923" gradientUnits="userSpaceOnUse">
					<stop offset=".1"/>
					<stop offset=".1072"/>
					<stop offset=".2274"/>
					<stop stop-color="#0D181E" offset=".3507"/>
					<stop stop-color="#1A2932" offset=".4751"/>
					<stop stop-color="#223541" offset=".601"/>
					<stop stop-color="#273F4D" offset=".7289"/>
					<stop stop-color="#2B4454" offset=".8602"/>
					<stop stop-color="#2C4656" offset="1"/>
				</radialGradient>
				<circle class="st21" cx="241" cy="346.9" r="44.9"/>
				<radialGradient id="x" cx="452.18" cy="186.28" r="57.706" gradientUnits="userSpaceOnUse">
					<stop offset=".1"/>
					<stop offset=".1575"/>
					<stop stop-color="#0B1D1E" offset=".2709"/>
					<stop stop-color="#20393D" offset=".3872"/>
					<stop stop-color="#2F5259" offset=".5047"/>
					<stop stop-color="#396874" offset=".6234"/>
					<stop stop-color="#417889" offset=".7442"/>
					<stop stop-color="#448396" offset=".8681"/>
					<stop stop-color="#46879B" offset="1"/>
				</radialGradient>
				<circle cx="452.2" cy="186.3" r="57.7" fill="url(#x)"/>
			</g>
		</g>
</svg>
