<?xml version="1.0" ?><svg data-name="Layer 1" id="Layer_1" viewBox="0 0 500 500" xmlns="http://www.w3.org/2000/svg"><defs><style>.cls-1{fill:#4bbfb9;}.cls-2{fill:#5edbc6;}.cls-3{fill:#fff;}</style></defs><title/><circle class="cls-1" cx="250" cy="250" r="250"/><circle class="cls-2" cx="250" cy="250" r="203.65"/><path class="cls-3" d="M317.82,206.6l-.5.69a11.92,11.92,0,0,0,.46,15c16.31,18.84,26.38,44.41,26.38,72.57,0,48.37-29,69.94-94.16,69.94s-94.16-21.57-94.16-69.94c0-28.16,10.07-53.73,26.38-72.57a11.92,11.92,0,0,0,.46-15l-.5-.69a11.83,11.83,0,0,0-18.56-1c-20.29,23.27-32.77,54.7-32.77,89.25,0,63,40.09,94.94,119.16,94.94s119.16-31.94,119.16-94.94c0-34.56-12.48-66-32.77-89.25A11.83,11.83,0,0,0,317.82,206.6Z"/><path class="cls-3" d="M250,213.11a49.89,49.89,0,1,1,49.89-49.88A49.94,49.94,0,0,1,250,213.11Zm0-81a31.14,31.14,0,1,0,31.14,31.14A31.17,31.17,0,0,0,250,132.09Z"/></svg>