<svg width="67" height="75" viewBox="0 0 67 75" fill="none" xmlns="http://www.w3.org/2000/svg">
<path d="M63.5 33H57.125V12C57.125 5.37188 51.7531 0 45.125 0H21.875C15.2469 0 9.875 5.37188 9.875 12V33H3.5C1.84062 33 0.5 34.3406 0.5 36V72C0.5 73.6594 1.84062 75 3.5 75H63.5C65.1594 75 66.5 73.6594 66.5 72V36C66.5 34.3406 65.1594 33 63.5 33ZM36.125 55.2188V60.1875C36.125 60.6 35.7875 60.9375 35.375 60.9375H31.625C31.2125 60.9375 30.875 60.6 30.875 60.1875V55.2188C30.1011 54.6631 29.5235 53.8763 29.2253 52.9715C28.9271 52.0667 28.9236 51.0906 29.2154 50.1838C29.5073 49.2769 30.0793 48.486 30.8493 47.9249C31.6192 47.3639 32.5473 47.0616 33.5 47.0616C34.4527 47.0616 35.3808 47.3639 36.1507 47.9249C36.9207 48.486 37.4927 49.2769 37.7846 50.1838C38.0764 51.0906 38.0729 52.0667 37.7747 52.9715C37.4765 53.8763 36.8989 54.6631 36.125 55.2188ZM50.375 33H16.625V12C16.625 9.10312 18.9781 6.75 21.875 6.75H45.125C48.0219 6.75 50.375 9.10312 50.375 12V33Z" fill="#0C0CBF"/>
</svg>
